<svg xmlns="http://www.w3.org/2000/svg" xmlns:xlink="http://www.w3.org/1999/xlink" viewBox="0 0 1025 1025"><defs><clipPath id="a" transform="translate(1 1)"><rect width="1024" height="1024" fill="none"/></clipPath><clipPath id="b" transform="translate(1 1)"><path d="M512,1020a4,4,0,0,1-4,4H380l-120-2H3a4,4,0,0,1-4-4V882c0-2,0-6,0-8V589c0-2,0-6,0-8V297c0-2,0-6,0-8V150c0-2,0-6,0-8V5A4,4,0,0,1,5,1H507a4,4,0,0,1,4,4V142c0,2,0,6,0,8V435c0,2,0,6,0,8V581c0,2,0,6,0,8V727c0,2,0,6,0,8V874c0,2,0,6,0,8Z" fill="none"/></clipPath><clipPath id="c" transform="translate(1 1)"><path d="M1024,1020a4,4,0,0,1-4,4H516a4,4,0,0,1-4-4V735c0-2,0-6,0-8V589c0-2,0-6,0-8V443c0-2,0-6,0-8V297c0-2,0-6,0-8V150c0-2,0-6,0-8V4a4,4,0,0,1,4-4h504a4,4,0,0,1,4,4V142c0,2,0,6,0,8V289c0,2,0,6,0,8V435c0,2,0,6,0,8V727c0,2,0,6,0,8V874c0,2,0,6,0,8Z" fill="none"/></clipPath><linearGradient id="e" x1="-0.64" y1="511.9" x2="1024.59" y2="511.9" gradientUnits="userSpaceOnUse"><stop offset="0.49" stop-color="#7f7f7f" stop-opacity="0"/><stop offset="0.5" stop-color="#7f7f7f"/><stop offset="0.51" stop-color="#7f7f7f" stop-opacity="0"/></linearGradient></defs><title>polyestr</title><g style="isolation:isolate"><g clip-path="url(#a)"><rect x="1" width="512" height="1024" fill="#007acc"/><rect x="513" width="512" height="1024" fill="#f7df1e"/><g opacity="0.33"><rect width="103" height="103.4" fill="#b7b7b7"/><rect x="102" width="103" height="103.4" fill="#b9b9b9"/><rect x="205" width="103" height="103.4" fill="#bababa"/><rect x="307" width="103" height="103.4" fill="#bcbcbc"/><rect x="410" width="103" height="103.4" fill="#bbb"/><rect x="512" width="103" height="103.4" fill="#bbb"/><rect x="614" width="103" height="103.4" fill="#bababa"/><rect x="717" width="103" height="103.4" fill="#bababa"/><rect x="819" width="103" height="103.4" fill="#b9b9b9"/><rect x="922" width="103" height="103.4" fill="#b8b8b8"/><rect y="102" width="103" height="103.4" fill="#b7b7b7"/><rect x="102" y="102" width="103" height="103.4" fill="#b9b9b9"/><rect x="205" y="102" width="103" height="103.4" fill="#bbb"/><rect x="307" y="102" width="103" height="103.4" fill="#c4c4c4"/><rect x="410" y="102" width="103" height="103.4" fill="#ccc"/><rect x="512" y="102" width="103" height="103.4" fill="#cdcdcd"/><rect x="614" y="102" width="103" height="103.4" fill="#c8c8c8"/><rect x="717" y="102" width="103" height="103.4" fill="#c1c1c1"/><rect x="819" y="102" width="103" height="103.4" fill="#bababa"/><rect x="922" y="102" width="103" height="103.4" fill="#b9b9b9"/><rect y="205" width="103" height="103.4" fill="#b7b7b7"/><rect x="102" y="205" width="103" height="103.4" fill="#bababa"/><rect x="205" y="205" width="103" height="103.4" fill="#c8c8c8"/><rect x="307" y="205" width="103" height="103.4" fill="#dcdcdc"/><rect x="410" y="205" width="103" height="103.4" fill="#e7e7e7"/><rect x="512" y="205" width="103" height="103.4" fill="#e5e5e5"/><rect x="614" y="205" width="103" height="103.4" fill="#dbdbdb"/><rect x="717" y="205" width="103" height="103.4" fill="#d0d0d0"/><rect x="819" y="205" width="103" height="103.4" fill="#c1c1c1"/><rect x="922" y="205" width="103" height="103.4" fill="#b9b9b9"/><rect y="307" width="103" height="103.4" fill="#b9b9b9"/><rect x="102" y="307" width="103" height="103.4" fill="#c2c2c2"/><rect x="205" y="307" width="103" height="103.4" fill="#d9d9d9"/><rect x="307" y="307" width="103" height="103.4" fill="#ececec"/><rect x="410" y="307" width="103" height="103.4" fill="#eee"/><rect x="512" y="307" width="103" height="103.4" fill="#efefef"/><rect x="614" y="307" width="103" height="103.4" fill="#ebebeb"/><rect x="717" y="307" width="103" height="103.4" fill="#d5d5d5"/><rect x="819" y="307" width="103" height="103.4" fill="#c8c8c8"/><rect x="922" y="307" width="103" height="103.4" fill="#bebebe"/><rect y="410" width="103" height="103.4" fill="#b9b9b9"/><rect x="102" y="410" width="103" height="103.4" fill="#c9c9c9"/><rect x="205" y="410" width="103" height="103.4" fill="#e2e2e2"/><rect x="307" y="410" width="103" height="103.4" fill="#eee"/><rect x="410" y="410" width="103" height="103.4" fill="#eee"/><rect x="512" y="410" width="103" height="103.4" fill="#eee"/><rect x="614" y="410" width="103" height="103.4" fill="#ededed"/><rect x="717" y="410" width="103" height="103.4" fill="#dbdbdb"/><rect x="819" y="410" width="103" height="103.4" fill="#c6c6c6"/><rect x="922" y="410" width="103" height="103.4" fill="#bebebe"/><rect y="512" width="103" height="103.4" fill="#bbb"/><rect x="102" y="512" width="103" height="103.4" fill="#cbcbcb"/><rect x="205" y="512" width="103" height="103.4" fill="#e0e0e0"/><rect x="307" y="512" width="103" height="103.4" fill="#ededed"/><rect x="410" y="512" width="103" height="103.4" fill="#ededed"/><rect x="512" y="512" width="103" height="103.4" fill="#ededed"/><rect x="614" y="512" width="103" height="103.4" fill="#eaeaea"/><rect x="717" y="512" width="103" height="103.4" fill="#d8d8d8"/><rect x="819" y="512" width="103" height="103.4" fill="#c3c3c3"/><rect x="922" y="512" width="103" height="103.4" fill="#bababa"/><rect y="614" width="103" height="103.4" fill="#bababa"/><rect x="102" y="614" width="103" height="103.4" fill="#c7c7c7"/><rect x="205" y="614" width="103" height="103.4" fill="#d9d9d9"/><rect x="307" y="614" width="103" height="103.4" fill="#e5e5e5"/><rect x="410" y="614" width="103" height="103.4" fill="#ebebeb"/><rect x="512" y="614" width="103" height="103.4" fill="#eaeaea"/><rect x="614" y="614" width="103" height="103.4" fill="#e7e7e7"/><rect x="717" y="614" width="103" height="103.4" fill="#cbcbcb"/><rect x="819" y="614" width="103" height="103.4" fill="#bdbdbd"/><rect x="922" y="614" width="103" height="103.4" fill="#b6b6b6"/><rect y="717" width="103" height="103.4" fill="#b9b9b9"/><rect x="102" y="717" width="103" height="103.4" fill="#bebebe"/><rect x="205" y="717" width="103" height="103.4" fill="#ccc"/><rect x="307" y="717" width="103" height="103.4" fill="#d2d2d2"/><rect x="410" y="717" width="103" height="103.4" fill="#dcdcdc"/><rect x="512" y="717" width="103" height="103.4" fill="#ddd"/><rect x="614" y="717" width="103" height="103.4" fill="#ccc"/><rect x="717" y="717" width="103" height="103.4" fill="#bcbcbc"/><rect x="819" y="717" width="103" height="103.4" fill="#b4b4b4"/><rect x="922" y="717" width="103" height="103.4" fill="#b0b0b0"/><rect y="819" width="103" height="103.4" fill="#b7b7b7"/><rect x="102" y="819" width="103" height="103.4" fill="#b2b2b2"/><rect x="205" y="819" width="103" height="103.4" fill="#b8b8b8"/><rect x="307" y="819" width="103" height="103.4" fill="#bdbdbd"/><rect x="410" y="819" width="103" height="103.4" fill="#bababa"/><rect x="512" y="819" width="103" height="103.4" fill="#b7b7b7"/><rect x="614" y="819" width="103" height="103.4" fill="#b2b2b2"/><rect x="717" y="819" width="103" height="103.4" fill="#aeaeae"/><rect x="819" y="819" width="103" height="103.4" fill="#acacac"/><rect x="922" y="819" width="103" height="103.4" fill="#ababab"/><rect y="922" width="103" height="103.4" fill="#b3b3b3"/><rect x="102" y="922" width="103" height="103.4" fill="#afafaf"/><rect x="205" y="922" width="103" height="103.4" fill="#ababab"/><rect x="307" y="922" width="103" height="103.4" fill="#adadad"/><rect x="410" y="922" width="103" height="103.4" fill="#adadad"/><rect x="512" y="922" width="103" height="103.4" fill="#aaa"/><rect x="614" y="922" width="103" height="103.4" fill="#a8a8a8"/><rect x="717" y="922" width="103" height="103.4" fill="#a6a6a6"/><rect x="819" y="922" width="103" height="103.4" fill="#a6a6a6"/><rect x="922" y="922" width="103" height="103.4" fill="#a6a6a6"/></g><g clip-path="url(#b)"><path d="M457,798c-4,0-6-2-6-5l2-155a13,13,0,0,0-5-10c-69-53-136-85-189-96-2,0-4-3-4-7V331c0-3,2-8,5-11a334,334,0,0,1,57-44c3-2,6-1,6,3V469c0,3,2,7,4,8,38,21,79,50,121,86,2,2,4,1,4-2V405c0-3,0-9,0-12V235a7,7,0,0,1,6-7,338,338,0,0,1,66,0,7,7,0,0,1,6,7V392c0,3,0,9,0,12l2,157c0,3,2,4,4,2,42-36,84-65,122-85,2-1,4-5,4-8V280c0-3,3-5,6-3a332,332,0,0,1,57,43c3,3,5,8,5,11V525c0,3-2,6-4,7-53,10-120,42-189,95a14,14,0,0,0-5,10V791c0,3-3,6-7,5A338,338,0,0,0,457,798Z" transform="translate(1 1)" fill="#fff"/></g><g clip-path="url(#c)"><path d="M499,796c-4,0-6-2-7-5V638a14,14,0,0,0-5-10c-69-53-136-85-189-96-2,0-4-3-4-7V331c0-3,2-8,5-11a336,336,0,0,1,56-43c3-2,6-1,6,3V470c0,3,2,7,4,8,38,20,80,49,123,86,2,2,4,1,4-2V405c0-3,0-9,0-12V235a7,7,0,0,1,6-7,338,338,0,0,1,65,1,7,7,0,0,1,7,7V561c0,3,2,4,4,2,42-36,83-65,121-86,2-1,4-5,4-8V278c0-3,3-5,6-3a335,335,0,0,1,59,45c3,3,5,8,5,11V525c0,3-2,6-4,7-53,11-119,44-187,97a14,14,0,0,0-5,10V792c0,3-3,6-7,5A338,338,0,0,0,499,796Z" transform="translate(1 1)"/></g><g opacity="0.25"><g clip-path="url(#b)"><path d="M457,798c-4,0-6-2-6-5l2-155a13,13,0,0,0-5-10c-69-53-136-85-189-96-2,0-4-3-4-7V331c0-3,2-8,5-11a334,334,0,0,1,57-44c3-2,6-1,6,3V469c0,3,2,7,4,8,38,21,79,50,121,86,2,2,4,1,4-2V405c0-3,0-9,0-12V235a7,7,0,0,1,6-7,338,338,0,0,1,66,0,7,7,0,0,1,6,7V392c0,3,0,9,0,12l2,157c0,3,2,4,4,2,42-36,84-65,122-85,2-1,4-5,4-8V280c0-3,3-5,6-3a332,332,0,0,1,57,43c3,3,5,8,5,11V525c0,3-2,6-4,7-53,10-120,42-189,95a14,14,0,0,0-5,10V791c0,3-3,6-7,5A338,338,0,0,0,457,798Z" transform="translate(1 1)" fill="url(#e)"/><path d="M457,798c-4,0-6-2-6-5l2-155a13,13,0,0,0-5-10c-69-53-136-85-189-96-2,0-4-3-4-7V331c0-3,2-8,5-11a334,334,0,0,1,57-44c3-2,6-1,6,3V469c0,3,2,7,4,8,38,21,79,50,121,86,2,2,4,1,4-2V405c0-3,0-9,0-12V235a7,7,0,0,1,6-7,338,338,0,0,1,66,0,7,7,0,0,1,6,7V392c0,3,0,9,0,12l2,157c0,3,2,4,4,2,42-36,84-65,122-85,2-1,4-5,4-8V280c0-3,3-5,6-3a332,332,0,0,1,57,43c3,3,5,8,5,11V525c0,3-2,6-4,7-53,10-120,42-189,95a14,14,0,0,0-5,10V791c0,3-3,6-7,5A338,338,0,0,0,457,798Z" transform="translate(1 1)" fill="url(#e)"/><path d="M457,798c-4,0-6-2-6-5l2-155a13,13,0,0,0-5-10c-69-53-136-85-189-96-2,0-4-3-4-7V331c0-3,2-8,5-11a334,334,0,0,1,57-44c3-2,6-1,6,3V469c0,3,2,7,4,8,38,21,79,50,121,86,2,2,4,1,4-2V405c0-3,0-9,0-12V235a7,7,0,0,1,6-7,338,338,0,0,1,66,0,7,7,0,0,1,6,7V392c0,3,0,9,0,12l2,157c0,3,2,4,4,2,42-36,84-65,122-85,2-1,4-5,4-8V280c0-3,3-5,6-3a332,332,0,0,1,57,43c3,3,5,8,5,11V525c0,3-2,6-4,7-53,10-120,42-189,95a14,14,0,0,0-5,10V791c0,3-3,6-7,5A338,338,0,0,0,457,798Z" transform="translate(1 1)" fill="url(#e)"/></g><g clip-path="url(#c)"><path d="M499,796c-4,0-6-2-7-5V638a14,14,0,0,0-5-10c-69-53-136-85-189-96-2,0-4-3-4-7V331c0-3,2-8,5-11a336,336,0,0,1,56-43c3-2,6-1,6,3V470c0,3,2,7,4,8,38,20,80,49,123,86,2,2,4,1,4-2V405c0-3,0-9,0-12V235a7,7,0,0,1,6-7,338,338,0,0,1,65,1,7,7,0,0,1,7,7V561c0,3,2,4,4,2,42-36,83-65,121-86,2-1,4-5,4-8V278c0-3,3-5,6-3a335,335,0,0,1,59,45c3,3,5,8,5,11V525c0,3-2,6-4,7-53,11-119,44-187,97a14,14,0,0,0-5,10V792c0,3-3,6-7,5A338,338,0,0,0,499,796Z" transform="translate(1 1)" fill="url(#e)"/><path d="M499,796c-4,0-6-2-7-5V638a14,14,0,0,0-5-10c-69-53-136-85-189-96-2,0-4-3-4-7V331c0-3,2-8,5-11a336,336,0,0,1,56-43c3-2,6-1,6,3V470c0,3,2,7,4,8,38,20,80,49,123,86,2,2,4,1,4-2V405c0-3,0-9,0-12V235a7,7,0,0,1,6-7,338,338,0,0,1,65,1,7,7,0,0,1,7,7V561c0,3,2,4,4,2,42-36,83-65,121-86,2-1,4-5,4-8V278c0-3,3-5,6-3a335,335,0,0,1,59,45c3,3,5,8,5,11V525c0,3-2,6-4,7-53,11-119,44-187,97a14,14,0,0,0-5,10V792c0,3-3,6-7,5A338,338,0,0,0,499,796Z" transform="translate(1 1)" fill="url(#e)"/><path d="M499,796c-4,0-6-2-7-5V638a14,14,0,0,0-5-10c-69-53-136-85-189-96-2,0-4-3-4-7V331c0-3,2-8,5-11a336,336,0,0,1,56-43c3-2,6-1,6,3V470c0,3,2,7,4,8,38,20,80,49,123,86,2,2,4,1,4-2V405c0-3,0-9,0-12V235a7,7,0,0,1,6-7,338,338,0,0,1,65,1,7,7,0,0,1,7,7V561c0,3,2,4,4,2,42-36,83-65,121-86,2-1,4-5,4-8V278c0-3,3-5,6-3a335,335,0,0,1,59,45c3,3,5,8,5,11V525c0,3-2,6-4,7-53,11-119,44-187,97a14,14,0,0,0-5,10V792c0,3-3,6-7,5A338,338,0,0,0,499,796Z" transform="translate(1 1)" fill="url(#e)"/></g></g><g opacity="0.1" style="mix-blend-mode:difference"><g clip-path="url(#b)"><path d="M457,798c-4,0-6-2-6-5l2-155a13,13,0,0,0-5-10c-69-53-136-85-189-96-2,0-4-3-4-7V331c0-3,2-8,5-11a334,334,0,0,1,57-44c3-2,6-1,6,3V469c0,3,2,7,4,8,38,21,79,50,121,86,2,2,4,1,4-2V405c0-3,0-9,0-12V235a7,7,0,0,1,6-7,338,338,0,0,1,66,0,7,7,0,0,1,6,7V392c0,3,0,9,0,12l2,157c0,3,2,4,4,2,42-36,84-65,122-85,2-1,4-5,4-8V280c0-3,3-5,6-3a332,332,0,0,1,57,43c3,3,5,8,5,11V525c0,3-2,6-4,7-53,10-120,42-189,95a14,14,0,0,0-5,10V791c0,3-3,6-7,5A338,338,0,0,0,457,798Z" transform="translate(1 1)" fill="none" stroke="gray" stroke-linecap="square" stroke-linejoin="bevel" stroke-width="10.24"/><path d="M457,798c-4,0-6-2-6-5l2-155a13,13,0,0,0-5-10c-69-53-136-85-189-96-2,0-4-3-4-7V331c0-3,2-8,5-11a334,334,0,0,1,57-44c3-2,6-1,6,3V469c0,3,2,7,4,8,38,21,79,50,121,86,2,2,4,1,4-2V405c0-3,0-9,0-12V235a7,7,0,0,1,6-7,338,338,0,0,1,66,0,7,7,0,0,1,6,7V392c0,3,0,9,0,12l2,157c0,3,2,4,4,2,42-36,84-65,122-85,2-1,4-5,4-8V280c0-3,3-5,6-3a332,332,0,0,1,57,43c3,3,5,8,5,11V525c0,3-2,6-4,7-53,10-120,42-189,95a14,14,0,0,0-5,10V791c0,3-3,6-7,5A338,338,0,0,0,457,798Z" transform="translate(1 1)" fill="none" stroke="gray" stroke-linecap="square" stroke-linejoin="bevel" stroke-width="10.24"/><path d="M457,798c-4,0-6-2-6-5l2-155a13,13,0,0,0-5-10c-69-53-136-85-189-96-2,0-4-3-4-7V331c0-3,2-8,5-11a334,334,0,0,1,57-44c3-2,6-1,6,3V469c0,3,2,7,4,8,38,21,79,50,121,86,2,2,4,1,4-2V405c0-3,0-9,0-12V235a7,7,0,0,1,6-7,338,338,0,0,1,66,0,7,7,0,0,1,6,7V392c0,3,0,9,0,12l2,157c0,3,2,4,4,2,42-36,84-65,122-85,2-1,4-5,4-8V280c0-3,3-5,6-3a332,332,0,0,1,57,43c3,3,5,8,5,11V525c0,3-2,6-4,7-53,10-120,42-189,95a14,14,0,0,0-5,10V791c0,3-3,6-7,5A338,338,0,0,0,457,798Z" transform="translate(1 1)" fill="none" stroke="gray" stroke-linecap="square" stroke-linejoin="bevel" stroke-width="10.24"/></g><g clip-path="url(#c)"><path d="M499,796c-4,0-6-2-7-5V638a14,14,0,0,0-5-10c-69-53-136-85-189-96-2,0-4-3-4-7V331c0-3,2-8,5-11a336,336,0,0,1,56-43c3-2,6-1,6,3V470c0,3,2,7,4,8,38,20,80,49,123,86,2,2,4,1,4-2V405c0-3,0-9,0-12V235a7,7,0,0,1,6-7,338,338,0,0,1,65,1,7,7,0,0,1,7,7V561c0,3,2,4,4,2,42-36,83-65,121-86,2-1,4-5,4-8V278c0-3,3-5,6-3a335,335,0,0,1,59,45c3,3,5,8,5,11V525c0,3-2,6-4,7-53,11-119,44-187,97a14,14,0,0,0-5,10V792c0,3-3,6-7,5A338,338,0,0,0,499,796Z" transform="translate(1 1)" fill="none" stroke="gray" stroke-linecap="square" stroke-linejoin="bevel" stroke-width="10.24"/><path d="M499,796c-4,0-6-2-7-5V638a14,14,0,0,0-5-10c-69-53-136-85-189-96-2,0-4-3-4-7V331c0-3,2-8,5-11a336,336,0,0,1,56-43c3-2,6-1,6,3V470c0,3,2,7,4,8,38,20,80,49,123,86,2,2,4,1,4-2V405c0-3,0-9,0-12V235a7,7,0,0,1,6-7,338,338,0,0,1,65,1,7,7,0,0,1,7,7V561c0,3,2,4,4,2,42-36,83-65,121-86,2-1,4-5,4-8V278c0-3,3-5,6-3a335,335,0,0,1,59,45c3,3,5,8,5,11V525c0,3-2,6-4,7-53,11-119,44-187,97a14,14,0,0,0-5,10V792c0,3-3,6-7,5A338,338,0,0,0,499,796Z" transform="translate(1 1)" fill="none" stroke="gray" stroke-linecap="square" stroke-linejoin="bevel" stroke-width="10.24"/><path d="M499,796c-4,0-6-2-7-5V638a14,14,0,0,0-5-10c-69-53-136-85-189-96-2,0-4-3-4-7V331c0-3,2-8,5-11a336,336,0,0,1,56-43c3-2,6-1,6,3V470c0,3,2,7,4,8,38,20,80,49,123,86,2,2,4,1,4-2V405c0-3,0-9,0-12V235a7,7,0,0,1,6-7,338,338,0,0,1,65,1,7,7,0,0,1,7,7V561c0,3,2,4,4,2,42-36,83-65,121-86,2-1,4-5,4-8V278c0-3,3-5,6-3a335,335,0,0,1,59,45c3,3,5,8,5,11V525c0,3-2,6-4,7-53,11-119,44-187,97a14,14,0,0,0-5,10V792c0,3-3,6-7,5A338,338,0,0,0,499,796Z" transform="translate(1 1)" fill="none" stroke="gray" stroke-linecap="square" stroke-linejoin="bevel" stroke-width="10.24"/></g></g></g></g></svg>